<svg width="207" height="52" viewBox="0 0 207 52" fill="none" xmlns="http://www.w3.org/2000/svg">
<path d="M70.9201 26.9537C70.3212 26.9537 69.6969 26.7944 69.0471 26.4758C68.3973 26.1444 67.6519 25.5391 66.811 24.6597L62.7975 20.4541V26.7625H61.0774V16.4396C61.0774 15.7896 60.9882 15.3117 60.8099 15.0059C60.6315 14.6873 60.2747 14.528 59.7396 14.528H59.3573V14.1456H61.0774C61.5488 14.1456 61.8992 14.2094 62.1286 14.3368C62.3707 14.4515 62.5427 14.6681 62.6446 14.9868C62.7465 15.3054 62.7975 15.7896 62.7975 16.4396V20.1673L66.811 16.1529L67.1932 15.7514C67.55 15.3818 67.8494 15.0951 68.0915 14.8912C68.3336 14.6745 68.6203 14.4961 68.9515 14.3559C69.2828 14.2157 69.6523 14.1456 70.06 14.1456H71.0156V14.6235C70.4805 14.6235 70.0154 14.7191 69.6205 14.9103C69.2255 15.0887 68.7668 15.4392 68.2444 15.9617L64.5176 19.6894L68.9133 24.2774C69.4739 24.8509 70.0409 25.3352 70.6143 25.7302C71.1876 26.1126 71.7037 26.3356 72.1624 26.3993V26.7625C71.7801 26.89 71.366 26.9537 70.9201 26.9537Z" fill="#C4242A"/>
<path d="M73.6485 20.0718C73.6485 19.4218 73.5593 18.9439 73.3809 18.638C73.2025 18.3194 72.8458 18.1601 72.3106 18.1601H71.9284V17.7778H73.6485C74.1199 17.7778 74.4766 17.8415 74.7187 17.9689C74.9736 18.0964 75.1583 18.2875 75.273 18.5424H75.3685C75.6361 18.2748 75.9801 18.0518 76.4006 17.8734C76.8338 17.6822 77.3179 17.5866 77.8531 17.5866C78.8087 17.5866 79.5859 17.8415 80.1847 18.3513C80.7963 18.861 81.1021 19.7531 81.1021 21.0276V26.7625H79.382V21.0276C79.382 20.1355 79.1782 19.4855 78.7705 19.0777C78.3755 18.6571 77.8786 18.4468 77.2797 18.4468C76.6044 18.4468 75.9674 18.7846 75.3685 19.46V26.7625H73.6485V20.0718Z" fill="#C4242A"/>
<path d="M87.4462 26.9537C86.5798 26.9537 85.8281 26.7498 85.191 26.342C84.554 25.9214 84.0698 25.3543 83.7385 24.6406C83.4073 23.9269 83.2416 23.1368 83.2416 22.2701C83.2416 21.4035 83.4073 20.6134 83.7385 19.8997C84.0698 19.186 84.554 18.6253 85.191 18.2174C85.8281 17.7969 86.5798 17.5866 87.4462 17.5866C88.3127 17.5866 89.0644 17.7969 89.7015 18.2174C90.3385 18.6253 90.8227 19.186 91.154 19.8997C91.4852 20.6134 91.6509 21.4035 91.6509 22.2701C91.6509 23.1368 91.4852 23.9269 91.154 24.6406C90.8227 25.3543 90.3385 25.9214 89.7015 26.342C89.0644 26.7498 88.3127 26.9537 87.4462 26.9537ZM87.4462 26.189C87.9177 26.189 88.3318 26.017 88.6885 25.6729C89.058 25.3288 89.3383 24.8573 89.5295 24.2583C89.7333 23.6593 89.8352 22.9966 89.8352 22.2701C89.8352 21.5437 89.7333 20.881 89.5295 20.282C89.3383 19.683 89.058 19.2115 88.6885 18.8674C88.3318 18.5233 87.9177 18.3513 87.4462 18.3513C86.9748 18.3513 86.5543 18.5233 86.1849 18.8674C85.8281 19.2115 85.5478 19.683 85.3439 20.282C85.1528 20.881 85.0573 21.5437 85.0573 22.2701C85.0573 22.9966 85.1528 23.6593 85.3439 24.2583C85.5478 24.8573 85.8281 25.3288 86.1849 25.6729C86.5543 26.017 86.9748 26.189 87.4462 26.189Z" fill="#C4242A"/>
<path d="M94.1847 19.9762C93.8917 19.2625 93.5986 18.7655 93.3056 18.4851C93.0252 18.192 92.6494 18.0327 92.1779 18.0072V17.6248C92.2417 17.6248 92.3372 17.6185 92.4646 17.6057C92.592 17.593 92.7195 17.5866 92.8469 17.5866C93.5349 17.5866 94.1401 17.765 94.6625 18.1219C95.1976 18.466 95.6436 19.0841 96.0003 19.9762L97.6249 23.9906L99.2494 19.8806C98.9436 19.2051 98.6505 18.7336 98.3702 18.466C98.1027 18.1856 97.7586 18.0327 97.3382 18.0072V17.6248C97.4019 17.6248 97.4974 17.6185 97.6249 17.6057C97.7523 17.593 97.8797 17.5866 98.0071 17.5866C98.6951 17.5866 99.3003 17.765 99.8227 18.1219C100.358 18.466 100.804 19.0841 101.161 19.9762L102.785 23.9906L105.27 17.7778H106.225L102.498 26.9537H102.116L99.7272 21.0276L97.3382 26.9537H96.9559L94.1847 19.9762Z" fill="#C4242A"/>
<path d="M116.909 21.5437L113.66 16.6308C113.329 16.1592 113.049 15.7896 112.819 15.522C112.59 15.2544 112.316 15.0314 111.998 14.8529C111.692 14.6618 111.322 14.5534 110.889 14.528V14.1456H112.609C113.246 14.1456 113.781 14.3368 114.214 14.7191C114.648 15.0887 115.068 15.5985 115.476 16.2484L118.247 20.5497L122.242 14.1456H123.102L118.629 21.4099V26.7625H116.909V21.5437Z" fill="#C4242A"/>
<path d="M126.678 26.9537C125.812 26.9537 125.06 26.7498 124.423 26.342C123.786 25.9214 123.302 25.3543 122.97 24.6406C122.639 23.9269 122.473 23.1368 122.473 22.2701C122.473 21.4035 122.639 20.6134 122.97 19.8997C123.302 19.186 123.786 18.6253 124.423 18.2174C125.06 17.7969 125.812 17.5866 126.678 17.5866C127.544 17.5866 128.296 17.7969 128.933 18.2174C129.57 18.6253 130.054 19.186 130.386 19.8997C130.717 20.6134 130.883 21.4035 130.883 22.2701C130.883 23.1368 130.717 23.9269 130.386 24.6406C130.054 25.3543 129.57 25.9214 128.933 26.342C128.296 26.7498 127.544 26.9537 126.678 26.9537ZM126.678 26.189C127.149 26.189 127.564 26.017 127.92 25.6729C128.29 25.3288 128.57 24.8573 128.761 24.2583C128.965 23.6593 129.067 22.9966 129.067 22.2701C129.067 21.5437 128.965 20.881 128.761 20.282C128.57 19.683 128.29 19.2115 127.92 18.8674C127.564 18.5233 127.149 18.3513 126.678 18.3513C126.207 18.3513 125.786 18.5233 125.417 18.8674C125.06 19.2115 124.78 19.683 124.576 20.282C124.385 20.881 124.289 21.5437 124.289 22.2701C124.289 22.9966 124.385 23.6593 124.576 24.2583C124.78 24.8573 125.06 25.3288 125.417 25.6729C125.786 26.017 126.207 26.189 126.678 26.189Z" fill="#C4242A"/>
<path d="M136.392 26.9537C135.437 26.9537 134.653 26.6988 134.041 26.189C133.443 25.6793 133.143 24.7872 133.143 23.5127V20.0718C133.143 19.4218 133.054 18.9439 132.876 18.638C132.697 18.3194 132.34 18.1601 131.805 18.1601H131.614V17.7778H133.143C133.615 17.7778 133.965 17.8415 134.194 17.9689C134.436 18.0836 134.608 18.3003 134.71 18.6189C134.812 18.9375 134.863 19.4218 134.863 20.0718V23.5127C134.863 24.4048 135.061 25.0612 135.456 25.4817C135.863 25.8895 136.367 26.0935 136.965 26.0935C137.641 26.0935 138.278 25.7557 138.877 25.0803V17.7778H140.597V26.7625H139.641L138.972 25.9979H138.877C138.609 26.2655 138.259 26.4949 137.826 26.6861C137.405 26.8645 136.927 26.9537 136.392 26.9537Z" fill="#C4242A"/>
<path d="M143.505 20.0718C143.505 19.4218 143.416 18.9439 143.237 18.638C143.059 18.3194 142.702 18.1601 142.167 18.1601H141.976V17.7778H143.505C143.989 17.7778 144.352 17.8479 144.594 17.988C144.849 18.1155 145.027 18.3321 145.129 18.638H145.225C145.454 18.3449 145.76 18.0964 146.142 17.8925C146.537 17.6886 146.996 17.5866 147.518 17.5866C148.028 17.5866 148.41 17.6822 148.665 17.8734C148.882 18.039 149.105 18.3258 149.334 18.7336L148.569 19.3071C148.429 19.1159 148.225 18.9757 147.958 18.8865C147.69 18.7846 147.384 18.7336 147.04 18.7336C146.658 18.7336 146.308 18.8228 145.989 19.0012C145.671 19.1669 145.416 19.3963 145.225 19.6894V26.7625H143.505V20.0718Z" fill="#C4242A"/>
<path d="M166.219 26.9537C165.62 26.9537 164.995 26.7944 164.346 26.4758C163.696 26.1444 162.95 25.5391 162.11 24.6597L158.096 20.4541V26.7625H156.376V16.4396C156.376 15.7896 156.287 15.3117 156.108 15.0059C155.93 14.6873 155.573 14.528 155.038 14.528H154.656V14.1456H156.376C156.847 14.1456 157.198 14.2094 157.427 14.3368C157.669 14.4515 157.841 14.6681 157.943 14.9868C158.045 15.3054 158.096 15.7896 158.096 16.4396V20.1673L162.11 16.1529L162.492 15.7514C162.849 15.3818 163.148 15.0951 163.39 14.8912C163.632 14.6745 163.919 14.4961 164.25 14.3559C164.581 14.2157 164.951 14.1456 165.359 14.1456H166.314V14.6235C165.779 14.6235 165.314 14.7191 164.919 14.9103C164.524 15.0887 164.065 15.4392 163.543 15.9617L159.816 19.6894L164.212 24.2774C164.772 24.8509 165.339 25.3352 165.913 25.7302C166.486 26.1126 167.002 26.3356 167.461 26.3993V26.7625C167.079 26.89 166.665 26.9537 166.219 26.9537Z" fill="#C4242A"/>
<path d="M170.801 26.9537C170.393 26.9537 169.979 26.8709 169.559 26.7052C169.138 26.5268 168.775 26.24 168.469 25.8449C168.176 25.4499 168.03 24.9273 168.03 24.2774C168.03 23.3088 168.476 22.6206 169.367 22.2128C170.272 21.805 171.451 21.6011 172.903 21.6011H173.476C173.476 20.3521 173.304 19.4983 172.96 19.0395C172.616 18.5807 172.12 18.3513 171.47 18.3513C170.896 18.3513 170.438 18.4723 170.094 18.7145C169.75 18.9566 169.508 19.3772 169.367 19.9762H168.507C168.507 19.5429 168.533 19.2051 168.584 18.963C168.635 18.7081 168.769 18.4723 168.985 18.2557C169.215 18.0263 169.59 17.8606 170.113 17.7587C170.648 17.644 171.228 17.5866 171.852 17.5866C172.884 17.5866 173.699 17.867 174.298 18.4277C174.897 18.9757 175.197 20.0335 175.197 21.6011V26.7625H174.241L173.572 25.9023H173.476C173.247 26.1954 172.909 26.4439 172.464 26.6478C172.018 26.8517 171.463 26.9537 170.801 26.9537ZM171.661 26.0935C172.081 26.0935 172.432 25.9915 172.712 25.7876C172.992 25.5837 173.247 25.3033 173.476 24.9465V22.3657H172.903C171.96 22.3657 171.215 22.5442 170.667 22.901C170.119 23.2451 169.845 23.7039 169.845 24.2774C169.845 24.8636 170.017 25.316 170.361 25.6347C170.718 25.9405 171.151 26.0935 171.661 26.0935Z" fill="#C4242A"/>
<path d="M178.015 20.0718C178.015 19.4218 177.925 18.9439 177.747 18.638C177.569 18.3194 177.212 18.1601 176.677 18.1601H176.486V17.7778H178.015C178.499 17.7778 178.862 17.8479 179.104 17.988C179.359 18.1155 179.537 18.3321 179.639 18.638H179.735C179.964 18.3449 180.27 18.0964 180.652 17.8925C181.047 17.6886 181.506 17.5866 182.028 17.5866C182.538 17.5866 182.92 17.6822 183.175 17.8734C183.391 18.039 183.614 18.3258 183.844 18.7336L183.079 19.3071C182.939 19.1159 182.735 18.9757 182.468 18.8865C182.2 18.7846 181.894 18.7336 181.55 18.7336C181.168 18.7336 180.818 18.8228 180.499 19.0012C180.181 19.1669 179.926 19.3963 179.735 19.6894V26.7625H178.015V20.0718Z" fill="#C4242A"/>
<path d="M185.745 20.0718C185.745 19.4218 185.655 18.9439 185.477 18.638C185.299 18.3194 184.942 18.1601 184.407 18.1601H184.024V17.7778H185.745C186.216 17.7778 186.573 17.8415 186.815 17.9689C187.07 18.0964 187.254 18.2875 187.369 18.5424H187.465C187.732 18.2748 188.076 18.0518 188.497 17.8734C188.93 17.6822 189.414 17.5866 189.949 17.5866C190.484 17.5866 190.943 17.6886 191.325 17.8925C191.707 18.0836 192.013 18.4277 192.243 18.9248C192.574 18.5042 192.994 18.1792 193.504 17.9498C194.026 17.7077 194.562 17.5866 195.109 17.5866C195.925 17.5866 196.575 17.8415 197.059 18.3513C197.543 18.861 197.785 19.7531 197.785 21.0276V26.7625H196.065V21.0276C196.065 20.11 195.938 19.4536 195.683 19.0586C195.428 18.6508 195.046 18.4468 194.536 18.4468C194.179 18.4468 193.803 18.5807 193.408 18.8483C193.013 19.1032 192.72 19.3836 192.529 19.6894C192.593 19.8806 192.625 20.3266 192.625 21.0276V26.7625H190.905V21.0276C190.905 20.11 190.777 19.4536 190.523 19.0586C190.268 18.6508 189.886 18.4468 189.376 18.4468C188.701 18.4468 188.063 18.7846 187.465 19.46V26.7625H185.745V20.0718Z" fill="#C4242A"/>
<path d="M202.604 26.9537C202.197 26.9537 201.783 26.8709 201.362 26.7052C200.942 26.5268 200.578 26.24 200.273 25.8449C199.98 25.4499 199.833 24.9273 199.833 24.2774C199.833 23.3088 200.279 22.6206 201.171 22.2128C202.076 21.805 203.254 21.6011 204.707 21.6011H205.28C205.28 20.3521 205.108 19.4983 204.764 19.0395C204.42 18.5807 203.923 18.3513 203.273 18.3513C202.7 18.3513 202.241 18.4723 201.897 18.7145C201.553 18.9566 201.311 19.3772 201.171 19.9762H200.311C200.311 19.5429 200.336 19.2051 200.387 18.963C200.438 18.7081 200.572 18.4723 200.789 18.2557C201.018 18.0263 201.394 17.8606 201.916 17.7587C202.451 17.644 203.031 17.5866 203.655 17.5866C204.688 17.5866 205.503 17.867 206.102 18.4277C206.701 18.9757 207 20.0335 207 21.6011V26.7625H206.044L205.376 25.9023H205.28C205.051 26.1954 204.713 26.4439 204.267 26.6478C203.821 26.8517 203.267 26.9537 202.604 26.9537ZM203.464 26.0935C203.885 26.0935 204.235 25.9915 204.516 25.7876C204.796 25.5837 205.051 25.3033 205.28 24.9465V22.3657H204.707C203.764 22.3657 203.018 22.5442 202.471 22.901C201.923 23.2451 201.649 23.7039 201.649 24.2774C201.649 24.8636 201.821 25.316 202.165 25.6347C202.521 25.9405 202.955 26.0935 203.464 26.0935Z" fill="#C4242A"/>
<path d="M64.9954 39.9529C64.6896 39.9529 64.387 39.8701 64.0876 39.7044C63.7881 39.5324 63.5492 39.201 63.3709 38.7104L63.132 38.0891H60.4563L59.6918 39.9051H59.2618L61.9375 33.5967H62.2241L64.3264 38.7104C64.4857 39.0799 64.6354 39.3348 64.7756 39.475C64.9157 39.6088 65.1164 39.6885 65.3776 39.714V39.9051C65.2629 39.937 65.1355 39.9529 64.9954 39.9529ZM60.5996 37.7067H62.9408L61.7941 34.9348L60.5996 37.7067Z" fill="#D45F37"/>
<path d="M67.6497 40.0007C67.191 40.0007 66.8024 39.8988 66.4839 39.6949C66.1717 39.4846 65.936 39.2042 65.7767 38.8537C65.6238 38.4969 65.5474 38.0986 65.5474 37.6589C65.5474 37.2193 65.6238 36.8242 65.7767 36.4737C65.936 36.1169 66.1717 35.8365 66.4839 35.6326C66.8024 35.4223 67.191 35.3172 67.6497 35.3172C68.3505 35.3172 68.8123 35.4287 69.0353 35.6517C69.1436 35.76 69.2105 35.8939 69.236 36.0532C69.2615 36.2061 69.2742 36.4865 69.2742 36.8943H69.0831C69.0576 36.4992 68.9334 36.2029 68.7104 36.0054C68.4874 35.8015 68.1976 35.6995 67.8408 35.6995C67.3821 35.6995 67.0349 35.8811 66.7992 36.2443C66.5699 36.6075 66.4552 37.0791 66.4552 37.6589C66.4552 38.2388 66.5699 38.7104 66.7992 39.0736C67.0349 39.4368 67.3821 39.6184 67.8408 39.6184C68.1657 39.6184 68.4333 39.5579 68.6435 39.4368C68.8537 39.3093 69.048 39.115 69.2264 38.8537L69.4175 38.9971C69.2073 39.3539 68.9589 39.612 68.6722 39.7713C68.3855 39.9243 68.0447 40.0007 67.6497 40.0007Z" fill="#D45F37"/>
<path d="M71.753 40.0007C71.3963 40.0007 71.1159 39.8988 70.9121 39.6949C70.7082 39.4909 70.6063 39.1787 70.6063 38.7581V35.7951H69.9374V35.4128H70.6063V34.5525L71.0841 33.979H71.4663V35.4128H72.6131V35.7951H71.4663V38.7581C71.4663 39.3316 71.6893 39.6184 72.1353 39.6184C72.2881 39.6184 72.4156 39.6025 72.5175 39.5706C72.6258 39.5387 72.7373 39.4909 72.852 39.4272L72.9475 39.6184C72.801 39.7267 72.6385 39.8191 72.4602 39.8956C72.2818 39.9657 72.0461 40.0007 71.753 40.0007Z" fill="#D45F37"/>
<path d="M74.1601 34.8393C74.0135 34.8393 73.8861 34.7787 73.7778 34.6577C73.6759 34.5366 73.6249 34.3932 73.6249 34.2275C73.6249 34.0937 73.6632 33.9886 73.7396 33.9121C73.8224 33.8356 73.9307 33.7974 74.0645 33.7974C74.211 33.7974 74.3353 33.8579 74.4372 33.979C74.5455 34.1001 74.5996 34.2435 74.5996 34.4091C74.5996 34.543 74.5582 34.6481 74.4754 34.7246C74.399 34.801 74.2939 34.8393 74.1601 34.8393ZM73.7969 36.5597C73.7969 36.2348 73.7524 35.9958 73.6632 35.8429C73.574 35.6836 73.3956 35.6039 73.128 35.6039H72.9369V35.4128H73.7969C74.0327 35.4128 74.2079 35.4446 74.3225 35.5083C74.4436 35.5657 74.5296 35.674 74.5805 35.8333C74.6315 35.9926 74.657 36.2348 74.657 36.5597V39.9051H73.7969V36.5597Z" fill="#D45F37"/>
<path d="M77.8496 40.0007C77.4164 40.0007 77.0405 39.8988 76.722 39.6949C76.4034 39.4846 76.1614 39.201 75.9957 38.8442C75.8301 38.4873 75.7473 38.0923 75.7473 37.6589C75.7473 37.2256 75.8301 36.8306 75.9957 36.4737C76.1614 36.1169 76.4034 35.8365 76.722 35.6326C77.0405 35.4223 77.4164 35.3172 77.8496 35.3172C78.2828 35.3172 78.6586 35.4223 78.9772 35.6326C79.2957 35.8365 79.5378 36.1169 79.7034 36.4737C79.8691 36.8306 79.9519 37.2256 79.9519 37.6589C79.9519 38.0923 79.8691 38.4873 79.7034 38.8442C79.5378 39.201 79.2957 39.4846 78.9772 39.6949C78.6586 39.8988 78.2828 40.0007 77.8496 40.0007ZM77.8496 39.6184C78.0853 39.6184 78.2923 39.5324 78.4707 39.3603C78.6555 39.1883 78.7956 38.9525 78.8912 38.653C78.9931 38.3535 79.0441 38.0222 79.0441 37.6589C79.0441 37.2957 78.9931 36.9644 78.8912 36.6649C78.7956 36.3654 78.6555 36.1296 78.4707 35.9576C78.2923 35.7855 78.0853 35.6995 77.8496 35.6995C77.6139 35.6995 77.4036 35.7855 77.2189 35.9576C77.0405 36.1296 76.9004 36.3654 76.7984 36.6649C76.7029 36.9644 76.6551 37.2957 76.6551 37.6589C76.6551 38.0222 76.7029 38.3535 76.7984 38.653C76.9004 38.9525 77.0405 39.1883 77.2189 39.3603C77.4036 39.5324 77.6139 39.6184 77.8496 39.6184Z" fill="#D45F37"/>
<path d="M81.2159 36.5597C81.2159 36.2348 81.1713 35.9958 81.0821 35.8429C80.9929 35.6836 80.8145 35.6039 80.547 35.6039H80.3559V35.4128H81.2159C81.4516 35.4128 81.63 35.4446 81.751 35.5083C81.8784 35.5721 81.9708 35.6676 82.0282 35.7951H82.0759C82.2097 35.6613 82.3817 35.5498 82.592 35.4605C82.8086 35.365 83.0506 35.3172 83.3182 35.3172C83.796 35.3172 84.1846 35.4446 84.484 35.6995C84.7898 35.9544 84.9427 36.4004 84.9427 37.0377V39.9051H84.0827V37.0377C84.0827 36.5916 83.9808 36.2666 83.7769 36.0627C83.5794 35.8524 83.331 35.7473 83.0315 35.7473C82.6939 35.7473 82.3754 35.9162 82.0759 36.2539V39.9051H81.2159V36.5597Z" fill="#D45F37"/>
<path d="M88.841 35.7951H88.1721V35.4128H88.841V35.126C88.841 34.0427 89.3985 33.5011 90.5133 33.5011C90.9147 33.5011 91.1854 33.5489 91.3256 33.6445C91.4339 33.7273 91.5454 33.8707 91.6601 34.0746L91.3734 34.3136C91.1823 34.0268 90.8797 33.8834 90.4656 33.8834C89.9559 33.8834 89.7011 34.2976 89.7011 35.126V35.4128H91.0389V35.7951H89.7011V39.9051H88.841V35.7951Z" fill="#D45F37"/>
<path d="M93.6114 40.0007C93.1782 40.0007 92.8023 39.8988 92.4837 39.6949C92.1652 39.4846 91.9231 39.201 91.7575 38.8442C91.5919 38.4873 91.509 38.0923 91.509 37.6589C91.509 37.2256 91.5919 36.8306 91.7575 36.4737C91.9231 36.1169 92.1652 35.8365 92.4837 35.6326C92.8023 35.4223 93.1782 35.3172 93.6114 35.3172C94.0446 35.3172 94.4204 35.4223 94.739 35.6326C95.0575 35.8365 95.2996 36.1169 95.4652 36.4737C95.6308 36.8306 95.7137 37.2256 95.7137 37.6589C95.7137 38.0923 95.6308 38.4873 95.4652 38.8442C95.2996 39.201 95.0575 39.4846 94.739 39.6949C94.4204 39.8988 94.0446 40.0007 93.6114 40.0007ZM93.6114 39.6184C93.8471 39.6184 94.0541 39.5324 94.2325 39.3603C94.4172 39.1883 94.5574 38.9525 94.6529 38.653C94.7549 38.3535 94.8058 38.0222 94.8058 37.6589C94.8058 37.2957 94.7549 36.9644 94.6529 36.6649C94.5574 36.3654 94.4172 36.1296 94.2325 35.9576C94.0541 35.7855 93.8471 35.6995 93.6114 35.6995C93.3756 35.6995 93.1654 35.7855 92.9807 35.9576C92.8023 36.1296 92.6621 36.3654 92.5602 36.6649C92.4646 36.9644 92.4169 37.2957 92.4169 37.6589C92.4169 38.0222 92.4646 38.3535 92.5602 38.653C92.6621 38.9525 92.8023 39.1883 92.9807 39.3603C93.1654 39.5324 93.3756 39.6184 93.6114 39.6184Z" fill="#D45F37"/>
<path d="M96.9108 36.5597C96.9108 36.2348 96.8662 35.9958 96.777 35.8429C96.6878 35.6836 96.5094 35.6039 96.2419 35.6039H96.1463V35.4128H96.9108C97.1529 35.4128 97.3344 35.4478 97.4555 35.5179C97.5829 35.5816 97.6721 35.6899 97.723 35.8429H97.7708C97.8855 35.6963 98.0384 35.5721 98.2295 35.4701C98.427 35.3681 98.6563 35.3172 98.9175 35.3172C99.1724 35.3172 99.3635 35.365 99.4909 35.4605C99.5992 35.5434 99.7107 35.6868 99.8254 35.8907L99.4431 36.1774C99.373 36.0818 99.2711 36.0117 99.1373 35.9671C99.0035 35.9162 98.8506 35.8907 98.6786 35.8907C98.4875 35.8907 98.3123 35.9353 98.153 36.0245C97.9938 36.1073 97.8664 36.222 97.7708 36.3686V39.9051H96.9108V36.5597Z" fill="#D45F37"/>
<path d="M104.092 40.0007C103.888 40.0007 103.681 39.9593 103.471 39.8765C103.26 39.7872 103.079 39.6439 102.926 39.4463C102.779 39.2488 102.706 38.9875 102.706 38.6626C102.706 38.1783 102.929 37.8342 103.375 37.6303C103.827 37.4264 104.417 37.3244 105.143 37.3244H105.43C105.43 36.6999 105.344 36.273 105.172 36.0436C105 35.8142 104.751 35.6995 104.426 35.6995C104.139 35.6995 103.91 35.76 103.738 35.8811C103.566 36.0022 103.445 36.2125 103.375 36.512H102.945C102.945 36.2953 102.958 36.1264 102.983 36.0054C103.009 35.8779 103.076 35.76 103.184 35.6517C103.299 35.537 103.487 35.4542 103.748 35.4032C104.015 35.3458 104.305 35.3172 104.617 35.3172C105.133 35.3172 105.541 35.4574 105.84 35.7377C106.14 36.0117 106.29 36.5406 106.29 37.3244V39.9051H105.812L105.477 39.475H105.43C105.315 39.6216 105.146 39.7458 104.923 39.8478C104.7 39.9497 104.423 40.0007 104.092 40.0007ZM104.522 39.5706C104.732 39.5706 104.907 39.5196 105.047 39.4177C105.187 39.3157 105.315 39.1755 105.43 38.9971V37.7067H105.143C104.671 37.7067 104.299 37.7959 104.025 37.9744C103.751 38.1464 103.614 38.3758 103.614 38.6626C103.614 38.9557 103.7 39.1819 103.872 39.3412C104.05 39.4941 104.267 39.5706 104.522 39.5706Z" fill="#D45F37"/>
<path d="M107.765 36.5597C107.765 36.2348 107.721 35.9958 107.632 35.8429C107.542 35.6836 107.364 35.6039 107.097 35.6039H106.905V35.4128H107.765C108.001 35.4128 108.18 35.4446 108.301 35.5083C108.428 35.5721 108.52 35.6676 108.578 35.7951H108.626C108.759 35.6613 108.931 35.5498 109.142 35.4605C109.358 35.365 109.6 35.3172 109.868 35.3172C110.346 35.3172 110.734 35.4446 111.034 35.6995C111.339 35.9544 111.492 36.4004 111.492 37.0377V39.9051H110.632V37.0377C110.632 36.5916 110.53 36.2666 110.326 36.0627C110.129 35.8524 109.881 35.7473 109.581 35.7473C109.243 35.7473 108.925 35.9162 108.626 36.2539V39.9051H107.765V36.5597Z" fill="#D45F37"/>
<path d="M120.465 39.9529C120.159 39.9529 119.856 39.8701 119.557 39.7044C119.258 39.5324 119.019 39.201 118.84 38.7104L118.601 38.0891H115.926L115.161 39.9051H114.731L117.407 33.5967H117.694L119.796 38.7104C119.955 39.0799 120.105 39.3348 120.245 39.475C120.385 39.6088 120.586 39.6885 120.847 39.714V39.9051C120.732 39.937 120.605 39.9529 120.465 39.9529ZM116.069 37.7067H118.41L117.264 34.9348L116.069 37.7067Z" fill="#D45F37"/>
<path d="M123.119 40.0007C122.66 40.0007 122.272 39.8988 121.953 39.6949C121.641 39.4846 121.405 39.2042 121.246 38.8537C121.093 38.4969 121.017 38.0986 121.017 37.6589C121.017 37.2193 121.093 36.8242 121.246 36.4737C121.405 36.1169 121.641 35.8365 121.953 35.6326C122.272 35.4223 122.66 35.3172 123.119 35.3172C123.82 35.3172 124.282 35.4287 124.505 35.6517C124.613 35.76 124.68 35.8939 124.705 36.0532C124.731 36.2061 124.744 36.4865 124.744 36.8943H124.553C124.527 36.4992 124.403 36.2029 124.18 36.0054C123.957 35.8015 123.667 35.6995 123.31 35.6995C122.852 35.6995 122.504 35.8811 122.269 36.2443C122.039 36.6075 121.925 37.0791 121.925 37.6589C121.925 38.2388 122.039 38.7104 122.269 39.0736C122.504 39.4368 122.852 39.6184 123.31 39.6184C123.635 39.6184 123.903 39.5579 124.113 39.4368C124.323 39.3093 124.518 39.115 124.696 38.8537L124.887 38.9971C124.677 39.3539 124.428 39.612 124.142 39.7713C123.855 39.9243 123.514 40.0007 123.119 40.0007Z" fill="#D45F37"/>
<path d="M127.222 40.0007C126.866 40.0007 126.585 39.8988 126.382 39.6949C126.178 39.4909 126.076 39.1787 126.076 38.7581V35.7951H125.407V35.4128H126.076V34.5525L126.554 33.979H126.936V35.4128H128.083V35.7951H126.936V38.7581C126.936 39.3316 127.159 39.6184 127.605 39.6184C127.758 39.6184 127.885 39.6025 127.987 39.5706C128.095 39.5387 128.207 39.4909 128.321 39.4272L128.417 39.6184C128.27 39.7267 128.108 39.8191 127.93 39.8956C127.751 39.9657 127.516 40.0007 127.222 40.0007Z" fill="#D45F37"/>
<path d="M129.63 34.8393C129.483 34.8393 129.356 34.7787 129.247 34.6577C129.145 34.5366 129.094 34.3932 129.094 34.2275C129.094 34.0937 129.133 33.9886 129.209 33.9121C129.292 33.8356 129.4 33.7974 129.534 33.7974C129.681 33.7974 129.805 33.8579 129.907 33.979C130.015 34.1001 130.069 34.2435 130.069 34.4091C130.069 34.543 130.028 34.6481 129.945 34.7246C129.868 34.801 129.763 34.8393 129.63 34.8393ZM129.266 36.5597C129.266 36.2348 129.222 35.9958 129.133 35.8429C129.043 35.6836 128.865 35.6039 128.598 35.6039H128.406V35.4128H129.266C129.502 35.4128 129.677 35.4446 129.792 35.5083C129.913 35.5657 129.999 35.674 130.05 35.8333C130.101 35.9926 130.126 36.2348 130.126 36.5597V39.9051H129.266V36.5597Z" fill="#D45F37"/>
<path d="M133.319 40.0007C132.886 40.0007 132.51 39.8988 132.191 39.6949C131.873 39.4846 131.631 39.201 131.465 38.8442C131.3 38.4873 131.217 38.0923 131.217 37.6589C131.217 37.2256 131.3 36.8306 131.465 36.4737C131.631 36.1169 131.873 35.8365 132.191 35.6326C132.51 35.4223 132.886 35.3172 133.319 35.3172C133.752 35.3172 134.128 35.4223 134.447 35.6326C134.765 35.8365 135.007 36.1169 135.173 36.4737C135.339 36.8306 135.421 37.2256 135.421 37.6589C135.421 38.0923 135.339 38.4873 135.173 38.8442C135.007 39.201 134.765 39.4846 134.447 39.6949C134.128 39.8988 133.752 40.0007 133.319 40.0007ZM133.319 39.6184C133.555 39.6184 133.762 39.5324 133.94 39.3603C134.125 39.1883 134.265 38.9525 134.361 38.653C134.463 38.3535 134.514 38.0222 134.514 37.6589C134.514 37.2957 134.463 36.9644 134.361 36.6649C134.265 36.3654 134.125 36.1296 133.94 35.9576C133.762 35.7855 133.555 35.6995 133.319 35.6995C133.083 35.6995 132.873 35.7855 132.688 35.9576C132.51 36.1296 132.37 36.3654 132.268 36.6649C132.172 36.9644 132.125 37.2957 132.125 37.6589C132.125 38.0222 132.172 38.3535 132.268 38.653C132.37 38.9525 132.51 39.1883 132.688 39.3603C132.873 39.5324 133.083 39.6184 133.319 39.6184Z" fill="#D45F37"/>
<path d="M136.685 36.5597C136.685 36.2348 136.641 35.9958 136.552 35.8429C136.462 35.6836 136.284 35.6039 136.016 35.6039H135.825V35.4128H136.685C136.921 35.4128 137.099 35.4446 137.221 35.5083C137.348 35.5721 137.44 35.6676 137.498 35.7951H137.545C137.679 35.6613 137.851 35.5498 138.061 35.4605C138.278 35.365 138.52 35.3172 138.788 35.3172C139.265 35.3172 139.654 35.4446 139.954 35.6995C140.259 35.9544 140.412 36.4004 140.412 37.0377V39.9051H139.552V37.0377C139.552 36.5916 139.45 36.2666 139.246 36.0627C139.049 35.8524 138.8 35.7473 138.501 35.7473C138.163 35.7473 137.845 35.9162 137.545 36.2539V39.9051H136.685V36.5597Z" fill="#D45F37"/>
<path d="M9.73171 29.085C9.73171 29.085 11.2383 28.8161 11.6059 30.1035C11.6059 30.1035 14.4361 30.6019 12.7486 33.6197C12.7486 33.6197 12.4782 34.6833 8.87177 34.5648C8.87177 34.5648 9.82408 34.3062 9.9774 33.9639C9.9774 33.9639 9.45935 34.5554 7.2614 33.5557C7.2614 33.5557 6.59478 33.331 6.18338 33.3169C6.18338 33.3169 6.1691 32.8673 8.20515 32.9924C8.20515 32.9924 7.89183 32.7103 6.48431 32.6605C5.07679 32.6106 4.47588 31.8846 4.47588 31.8846C4.47588 31.8846 5.57961 31.8254 5.70627 31.2959C5.71099 31.2787 5.71418 31.2611 5.71579 31.2433C5.71579 31.2433 4.73491 31.168 4.24447 30.4712C3.75403 29.7743 2.46459 28.8471 2.02176 28.9054C2.26368 28.8629 2.50952 28.8462 2.75505 28.8556C3.21394 28.9005 3.66338 29.0134 4.08829 29.1903C4.45007 29.3473 4.82772 29.4658 5.21488 29.5439C5.73484 29.6258 6.52241 29.5242 6.72144 28.9505C6.72144 28.9505 4.27113 29.3559 3.62642 27.1459C3.62642 27.1459 5.04156 28.265 6.33289 27.3942C7.62423 26.5233 8.81558 26.0259 10.0631 26.4726C10.0631 26.4726 10.0993 25.8359 8.76416 25.8209C8.76416 25.8209 11.664 23.5686 13.4505 27.3255C13.4505 27.3255 12.3411 26.8252 11.8687 26.8967C11.8687 26.8967 12.8877 27.5973 13.0629 28.0524C13.0629 28.0524 12.4249 26.9587 9.82503 27.381C9.82503 27.381 10.7297 27.5409 10.8069 27.8625C10.8069 27.8625 9.03556 27.2982 8.04992 28.6703C8.04992 28.6703 7.65471 28.9524 7.66042 30.3677L7.16046 30.6847L8.02516 30.7279L11.0554 33.0912C11.1063 33.1305 11.1694 33.151 11.234 33.1491C11.2985 33.1472 11.3604 33.1231 11.4087 33.0808L11.6878 32.8354C11.7287 32.7998 11.7579 32.7529 11.7717 32.7008C11.7854 32.6487 11.7831 32.5937 11.7649 32.5429L11.0888 30.6329C11.0888 30.6329 11.2373 29.4236 9.73171 29.085ZM-9.81914e-07 29.5364C-9.81914e-07 29.5364 0.34569 30.1543 1.41514 29.7837C2.48459 29.4132 3.05312 29.9775 3.05312 29.9775C3.05312 29.9775 2.44459 28.849 1.42181 29.1612C0.399019 29.4734 1.03231 29.3982 -9.81914e-07 29.5364ZM15.5618 16.0632L14.5552 17.8255C14.5285 17.8725 14.4883 17.9105 14.4396 17.9348C14.3909 17.9591 14.336 17.9685 14.2819 17.9618L13.9105 17.9167C13.8464 17.9086 13.7873 17.8786 13.7435 17.8318C13.6996 17.7851 13.6738 17.7246 13.6705 17.6609L13.4686 13.8428L12.9305 13.1733L13.5019 13.335C14.578 12.3946 15.0504 12.5037 15.0504 12.5037C16.7455 12.3278 17.4845 14.0159 17.4845 14.0159C17.675 13.746 17.1988 12.9692 17.1988 12.9692C19.2349 14.6177 18.8244 15.813 18.8244 15.813C19.0549 15.3823 18.9149 14.1645 18.9149 14.1645C19.2806 14.4673 19.6329 15.6202 19.6329 15.6202C21.31 11.8172 17.6816 11.1533 17.6816 11.1533C18.5521 12.1529 18.0435 12.547 18.0435 12.547C17.5597 11.3244 16.396 10.7715 14.8809 10.384C13.3657 9.99656 13.2829 8.21261 13.2829 8.21261C12.0277 10.1499 13.9495 11.6996 13.9495 11.6996C13.3781 11.9319 12.7858 11.4175 12.5048 10.9737C12.2934 10.6445 12.1649 10.2712 12.0287 9.90534C11.8832 9.47446 11.6732 9.06747 11.4059 8.69786C11.2512 8.50948 11.0762 8.33826 10.884 8.18721C11.2202 8.47686 11.3668 10.0445 11.1602 10.8693C10.9535 11.694 11.5411 12.468 11.5411 12.468C11.5267 12.4783 11.5114 12.4874 11.4954 12.4952C11.0097 12.751 10.2355 11.9705 10.2355 11.9705C10.2355 11.9705 10.0812 12.9024 10.9745 13.9773C11.8678 15.0522 11.8582 15.4726 11.8582 15.4726C10.6183 13.887 10.285 14.1889 10.285 14.1889C10.5459 14.503 10.8154 15.1463 10.8154 15.1463C11.5059 17.4362 12.2982 17.4305 12.2982 17.4305C11.9325 17.5396 11.1107 17.0073 11.1107 17.0073C13.4019 19.7655 14.3895 19.2671 14.3895 19.2671C17.7988 18.527 16.3093 16.0979 16.3093 16.0979C17.0464 14.9751 15.8465 14.0356 15.8465 14.0356C16.5789 15.3691 15.5618 16.0632 15.5618 16.0632ZM9.07937 7.11044C9.07937 7.11044 8.83844 7.77532 9.82599 8.32452C10.8135 8.87372 10.7593 9.66648 10.7593 9.66648C10.7593 9.66648 11.2183 8.46934 10.304 7.91731C9.38983 7.36529 9.86598 7.78566 9.07937 7.11044ZM27.3867 10.7207L25.3811 11.1373C25.3275 11.1486 25.2717 11.1439 25.2209 11.1238C25.17 11.1037 25.1263 11.0691 25.0954 11.0244L24.8859 10.7188C24.8496 10.6661 24.8333 10.6024 24.8397 10.539C24.8462 10.4755 24.875 10.4164 24.9211 10.3718L27.6933 7.70008L27.8476 6.85936L28.1009 7.38974C29.5294 7.56748 29.756 7.98973 29.756 7.98973C31.0083 9.13139 30.2132 10.794 30.2132 10.794C30.5455 10.7592 30.8226 9.89406 30.8226 9.89406C30.9131 12.4924 29.7322 12.9767 29.7322 12.9767C30.2084 12.8629 31.0464 11.9554 31.0464 11.9554C31.0569 12.4256 30.4122 13.4488 30.4122 13.4488C34.4119 12.183 32.5225 9.05333 32.5225 9.05333C32.3368 10.3586 31.7016 10.2411 31.7016 10.2411C32.3111 9.07778 31.9645 7.84678 31.2559 6.47002C30.5474 5.09326 31.853 3.85098 31.853 3.85098C29.5513 4.19894 29.6427 6.65059 29.6427 6.65059C29.0923 6.38163 29.0913 5.59732 29.2408 5.09891C29.3523 4.72274 29.5513 4.38326 29.7408 4.04095C29.9727 3.6487 30.1435 3.22421 30.2474 2.78174C30.2889 2.54268 30.3039 2.29988 30.2922 2.05762C30.2922 2.49868 29.198 3.64221 28.4342 4.03248C27.6705 4.42275 27.4686 5.3735 27.4686 5.3735C27.4511 5.36917 27.434 5.36384 27.4172 5.35752C26.9019 5.16944 26.9848 4.07667 26.9848 4.07667C26.9848 4.07667 26.1734 4.57698 25.9468 5.94998C25.7201 7.32298 25.3916 7.59193 25.3916 7.59193C25.7792 5.61707 25.3259 5.57005 25.3259 5.57005C25.2592 5.97067 24.9449 6.59509 24.9449 6.59509C23.6612 8.62168 24.1888 9.20474 24.1888 9.20474C23.865 9.00631 23.7269 8.04427 23.7269 8.04427C23.1441 11.5614 24.1774 11.963 24.1774 11.963C26.9915 14.0027 27.8562 11.2943 27.8562 11.2943C29.1961 11.0997 29.1189 9.5903 29.1189 9.5903C28.5856 11.0169 27.3867 10.7207 27.3867 10.7207ZM29.9179 4.4911e-06C29.9179 4.4911e-06 29.2513 0.259559 29.4875 1.3542C29.7237 2.44883 29.0828 2.93315 29.0828 2.93315C29.0828 2.93315 30.296 2.48362 30.1122 1.44071C29.9284 0.397794 29.9236 1.03164 29.9179 0.00282688L29.9179 4.4911e-06ZM14.7047 25.6619C14.3585 28.2543 14.7984 30.8898 15.9689 33.2353C17.1393 35.5808 18.9877 37.5309 21.2804 38.8391C23.5731 40.1473 26.2071 40.7548 28.8494 40.5849C31.4917 40.415 34.0236 39.4753 36.1252 37.8845C38.2267 36.2937 39.8034 34.1233 40.6559 31.6478C41.5084 29.1722 41.5985 26.5026 40.9148 23.9765C40.231 21.4504 38.8042 19.1812 36.8146 17.4557C34.825 15.7303 32.362 14.6262 29.737 14.283C27.9933 14.0549 26.2212 14.1684 24.5219 14.6169C22.8226 15.0655 21.2294 15.8402 19.8335 16.8969C18.4375 17.9536 17.266 19.2716 16.386 20.7755C15.506 22.2795 14.9347 23.9399 14.7047 25.6619ZM41.2448 16.6142L39.4668 15.6061C39.4196 15.5793 39.3815 15.5393 39.3574 15.491C39.3333 15.4428 39.3243 15.3886 39.3316 15.3353L39.3801 14.9695C39.3887 14.9063 39.4194 14.8481 39.4669 14.805C39.5144 14.7619 39.5757 14.7366 39.6401 14.7334L43.5084 14.5651L44.1903 14.0384L44.0217 14.6027C44.9674 15.6729 44.8531 16.1374 44.8531 16.1374C45.0178 17.8133 43.3037 18.5308 43.3037 18.5308C43.5751 18.7236 44.3655 18.26 44.3655 18.26C42.6809 20.2583 41.4733 19.8436 41.4733 19.8436C41.9076 20.074 43.1418 19.9452 43.1418 19.9452C42.8323 20.3044 41.6628 20.643 41.6628 20.643C45.5016 22.3272 46.2006 18.7499 46.2006 18.7499C45.1816 19.6019 44.7864 19.0969 44.7864 19.0969C46.0244 18.6267 46.5958 17.4832 46.9958 15.9936C47.3958 14.504 49.2071 14.4315 49.2071 14.4315C47.2548 13.178 45.6711 15.0673 45.6711 15.0673C45.4407 14.503 45.9692 13.92 46.4168 13.6454C46.752 13.4403 47.131 13.3153 47.5024 13.1846C47.9399 13.0439 48.3537 12.8394 48.73 12.578C48.9218 12.4269 49.0965 12.2557 49.2509 12.0673C48.9557 12.3965 47.3662 12.53 46.533 12.3194C45.6997 12.1087 44.9083 12.6861 44.9083 12.6861C44.8982 12.6713 44.889 12.6559 44.8807 12.6401C44.6255 12.1586 45.4216 11.4006 45.4216 11.4006C45.4216 11.4006 44.4788 11.2407 43.3846 12.1153C42.2904 12.9899 41.8609 12.9767 41.8609 12.9767C43.4799 11.7542 43.1742 11.4241 43.1742 11.4241C42.8551 11.6799 42.2018 11.9413 42.2018 11.9413C39.8772 12.6053 39.8772 13.3877 39.8772 13.3877C39.7696 13.0266 40.3153 12.2188 40.3153 12.2188C37.5098 14.4598 38.0107 15.4387 38.0107 15.4387C38.7354 18.811 41.2057 17.3581 41.2057 17.3581C42.3371 18.0935 43.3008 16.917 43.3008 16.917C41.94 17.6233 41.2448 16.6142 41.2448 16.6142ZM50.3584 10.2796C50.3584 10.2796 49.6918 10.0361 49.1204 11.0075C48.549 11.979 47.7538 11.9188 47.7538 11.9188C47.7538 11.9188 48.9633 12.3814 49.528 11.4824C50.0927 10.5834 49.6689 11.0508 50.3584 10.2796ZM44.5626 29.9878L44.4017 27.9706C44.3974 27.9169 44.4093 27.8632 44.4359 27.8161C44.4625 27.7691 44.5026 27.7309 44.5512 27.7064L44.8855 27.5399C44.9431 27.5114 45.009 27.5037 45.0718 27.5181C45.1346 27.5325 45.1903 27.5682 45.2293 27.6189L47.5539 30.6762L48.3776 30.9376L47.8129 31.1163C47.452 32.4912 46.9987 32.6595 46.9987 32.6595C45.6911 33.7391 44.1236 32.746 44.1236 32.746C44.115 33.0771 44.9483 33.4598 44.9483 33.4598C42.3285 33.2134 41.9961 31.9956 41.9961 31.9956C42.0485 32.4799 42.8532 33.4128 42.8532 33.4128C42.3771 33.3629 41.4352 32.6003 41.4352 32.6003C42.1923 36.6807 45.5788 35.2334 45.5788 35.2334C44.2912 34.8826 44.4903 34.2761 44.4903 34.2761C45.5816 35.0228 46.8615 34.8403 48.3348 34.325C49.808 33.8096 50.8879 35.2466 50.8879 35.2466C50.8355 32.9473 48.3614 32.7216 48.3614 32.7216C48.7023 32.2166 49.4899 32.3172 49.9718 32.5279C50.3327 32.6849 50.6508 32.9228 50.9689 33.1532C51.3335 33.4303 51.7379 33.6522 52.1688 33.8115C52.4035 33.8822 52.6452 33.9282 52.8897 33.9488C52.4478 33.8933 51.4393 32.6727 51.145 31.8752C50.8508 31.0777 49.9223 30.7571 49.9223 30.7571C49.9289 30.7403 49.9365 30.724 49.9451 30.7082C50.2041 30.2286 51.2869 30.4496 51.2869 30.4496C51.2869 30.4496 50.8889 29.591 49.5394 29.1922C48.19 28.7935 47.9614 28.4399 47.9614 28.4399C49.8946 29.0719 49.9965 28.6336 49.9965 28.6336C49.6032 28.517 49.0157 28.1314 49.0157 28.1314C47.1491 26.6117 46.4949 27.0528 46.4949 27.0528C46.7358 26.7613 47.7196 26.75 47.7196 26.75C44.2627 25.7278 43.7265 26.6879 43.7265 26.6879C41.3162 29.1809 43.9246 30.3762 43.9246 30.3762C43.9474 31.7135 45.4731 31.832 45.4731 31.832C44.1103 31.1266 44.5626 29.9878 44.5626 29.9878ZM55 33.8435C55 33.8435 54.8248 33.1589 53.6953 33.2482C52.5659 33.3376 52.1621 32.6492 52.1621 32.6492C52.1621 32.6492 52.4573 33.8952 53.5287 33.8491C54.6 33.8031 53.9667 33.7203 55 33.8435ZM35.8585 41.7091L37.2869 40.258C37.3248 40.2193 37.3734 40.1926 37.4267 40.1814C37.48 40.1701 37.5354 40.1749 37.586 40.195L37.9326 40.3323C37.9924 40.3563 38.0418 40.4002 38.0722 40.4563C38.1027 40.5125 38.1122 40.5774 38.0993 40.6398L37.3079 44.3827L37.6555 45.1651L37.145 44.8651C35.8604 45.5046 35.4309 45.2789 35.4309 45.2789C33.7462 45.0222 33.4672 43.2043 33.4672 43.2043C33.2101 43.4159 33.4672 44.2868 33.4672 44.2868C31.9245 42.1802 32.6301 41.1279 32.6301 41.1279C32.2959 41.4862 32.1168 42.6984 32.1168 42.6984C31.8454 42.3166 31.8073 41.1129 31.8073 41.1129C29.2037 44.3686 32.5406 45.924 32.5406 45.924C31.9578 44.7381 32.5501 44.4852 32.5501 44.4852C32.7025 45.7867 33.6853 46.6171 35.0509 47.3694C36.4165 48.1217 36.0356 49.8718 36.0356 49.8718C37.7498 48.3145 36.288 46.3312 36.288 46.3312C36.8965 46.2503 37.3403 46.9011 37.4984 47.3967C37.6164 47.7729 37.645 48.1622 37.6812 48.5496C37.7107 49.0031 37.8086 49.4497 37.9717 49.8747C38.0729 50.0956 38.1977 50.3053 38.344 50.5C38.0936 50.1352 38.3573 48.5816 38.7697 47.8368C39.1821 47.092 38.8135 46.192 38.8135 46.192C38.8304 46.1858 38.8475 46.1805 38.8649 46.176C39.4011 46.0519 39.9477 47.0008 39.9477 47.0008C39.9477 47.0008 40.3382 46.1394 39.7506 44.8745C39.163 43.6097 39.283 43.2062 39.283 43.2062C40.0744 45.0607 40.4734 44.8463 40.4734 44.8463C40.3029 44.4777 40.2077 43.7874 40.2077 43.7874C40.1325 41.3997 39.3639 41.205 39.3639 41.205C39.7449 41.1919 40.4039 41.9141 40.4039 41.9141C38.8992 38.6744 37.8145 38.9104 37.8145 38.9104C34.3281 38.7684 35.1404 41.4919 35.1404 41.4919C34.1376 42.3918 35.0547 43.6021 35.0547 43.6021C34.6938 42.1266 35.8566 41.7119 35.8566 41.7119L35.8585 41.7091ZM39.8125 52C39.8125 52 40.2182 51.4179 39.4039 50.6392C38.5897 49.8606 38.8487 49.1064 38.8487 49.1064C38.8487 49.1064 38.0955 50.1483 38.8373 50.9119C39.5792 51.6756 39.2268 51.147 39.8125 52ZM19.9805 42.3382L21.9861 42.7576C22.0394 42.7687 22.0881 42.7952 22.1261 42.8337C22.1641 42.8722 22.1896 42.921 22.1994 42.9739L22.2661 43.3369C22.278 43.3997 22.267 43.4647 22.2351 43.5202C22.2032 43.5758 22.1525 43.6185 22.0918 43.6407L18.4644 44.9761L17.9797 45.6842L17.9645 45.0974C16.7312 44.3657 16.696 43.888 16.696 43.888C16.0179 42.3439 17.4274 41.1411 17.4274 41.1411C17.1093 41.0395 16.5017 41.7204 16.5017 41.7204C17.4826 39.3082 18.7606 39.3364 18.7606 39.3364C18.2759 39.248 17.1417 39.7455 17.1417 39.7455C17.3245 39.3101 18.3321 38.633 18.3321 38.633C14.1552 38.1938 14.6028 41.8107 14.6028 41.8107C15.3075 40.6916 15.8408 41.0517 15.8408 41.0517C14.8075 41.8737 14.6209 43.1366 14.7047 44.6789C14.7885 46.2212 13.0858 46.8362 13.0858 46.8362C15.3332 47.4371 16.2532 45.1585 16.2532 45.1585C16.6474 45.6287 16.3265 46.3415 15.9856 46.7375C15.7303 47.0356 15.4094 47.2688 15.0961 47.5058C14.7235 47.7719 14.3935 48.0917 14.1171 48.4547C13.9813 48.6571 13.868 48.8734 13.779 49.0998C13.9581 48.6963 15.4294 48.087 16.2874 48.0343C17.1455 47.9816 17.7159 47.1936 17.7159 47.1936C17.7302 47.2044 17.7439 47.216 17.7569 47.2284C18.1492 47.6045 17.6274 48.5722 17.6274 48.5722C17.6274 48.5722 18.574 48.4387 19.3415 47.2744C20.1091 46.1102 20.5205 45.9927 20.5205 45.9927C19.3568 47.6478 19.7539 47.8735 19.7539 47.8735C19.9786 47.534 20.5157 47.0864 20.5157 47.0864C22.5156 45.7491 22.2766 45.0043 22.2766 45.0043C22.4918 45.3156 22.2242 46.2503 22.2242 46.2503C24.1964 43.2664 23.4155 42.4887 23.4155 42.4887C21.6776 39.5001 19.7777 41.632 19.7777 41.632C18.4721 41.2746 17.9245 42.6862 17.9245 42.6862C19.0054 41.5878 19.9805 42.3382 19.9805 42.3382ZM13.2781 51.1301C13.2781 51.1301 13.9933 51.1583 14.2304 50.0637C14.4676 48.9691 15.2466 48.781 15.2466 48.781C15.2466 48.781 13.9524 48.7076 13.6943 49.7355C13.4362 50.7634 13.6933 50.1869 13.2781 51.1301Z" fill="url(#paint0_linear_404_65)"/>
<defs>
<linearGradient id="paint0_linear_404_65" x1="5.76297" y1="32.6655" x2="48.5593" y2="32.0785" gradientUnits="userSpaceOnUse">
<stop stop-color="#C70F11"/>
<stop offset="1" stop-color="#D25318"/>
</linearGradient>
</defs>
</svg>
